<svg width="30" height="30" viewBox="0 0 30 30" fill="none" xmlns="http://www.w3.org/2000/svg">
<path fill-rule="evenodd" clip-rule="evenodd" d="M20.9998 3H8.99992C5.70026 3 3 5.70026 3 8.99992V21.0003C3 24.2991 5.70026 27.0003 8.99992 27.0003H20.9998C24.2994 27.0003 26.9997 24.2991 26.9997 21.0003V8.99992C26.9997 5.70026 24.2994 3 20.9998 3ZM24.9996 21.0003C24.9996 23.2053 23.206 25.0002 20.9998 25.0002H8.99992C6.79466 25.0002 5.00007 23.2053 5.00007 21.0003V8.99992C5.00007 6.79436 6.79466 5.00007 8.99992 5.00007H20.9998C23.206 5.00007 24.9996 6.79436 24.9996 8.99992V21.0003ZM21.501 9.99996C22.3294 9.99996 23.0009 9.3284 23.0009 8.49998C23.0009 7.67156 22.3294 7 21.501 7C20.6725 7 20.001 7.67156 20.001 8.49998C20.001 9.3284 20.6725 9.99996 21.501 9.99996ZM8.99979 14.9997C8.99979 11.6856 11.6853 8.99979 14.9997 8.99979C18.3131 8.99979 20.9996 11.6856 20.9996 14.9997C20.9996 18.3126 18.3131 21.0002 14.9997 21.0002C11.6853 21.0002 8.99979 18.3126 8.99979 14.9997ZM10.9999 14.9997C10.9999 17.2092 12.7908 19.0001 14.9997 19.0001C17.2086 19.0001 18.9996 17.2092 18.9996 14.9997C18.9996 12.7902 17.2086 10.9999 14.9997 10.9999C12.7908 10.9999 10.9999 12.7902 10.9999 14.9997Z" fill="#335573"/>
</svg>
