<svg width="30" height="30" viewBox="0 0 30 30" fill="none" xmlns="http://www.w3.org/2000/svg">
<path d="M15.3012 3C9.22917 3 6 7.21519 6 11.8114C6 13.943 7.09947 16.6011 8.85945 17.4442C9.1267 17.5747 9.2721 17.5192 9.33164 17.2506C9.38426 17.0466 9.61551 16.0641 9.72767 15.6006C9.76229 15.4521 9.74429 15.3231 9.63351 15.1836C9.04916 14.4515 8.58528 13.118 8.58528 11.8669C8.58528 8.66126 10.9379 5.54862 14.9412 5.54862C18.403 5.54862 20.8248 7.98473 20.8248 11.4694C20.8248 15.4071 18.9015 18.1312 16.402 18.1312C15.0187 18.1312 13.9885 16.9551 14.3153 15.5001C14.7099 13.7675 15.484 11.9044 15.484 10.6548C15.484 9.5343 14.8996 8.60725 13.706 8.60725C12.2977 8.60725 11.1553 10.1178 11.1553 12.1459C11.1553 13.4345 11.5763 14.3045 11.5763 14.3045C11.5763 14.3045 10.1832 20.4008 9.9243 21.5393C9.48673 23.4669 9.98385 26.5886 10.0268 26.8571C10.0531 27.0056 10.2068 27.0521 10.2926 26.9306C10.4297 26.7356 12.1135 24.133 12.5857 22.2519C12.7574 21.5663 13.4623 18.7867 13.4623 18.7867C13.9261 19.6943 15.2652 20.4548 16.6914 20.4548C20.9342 20.4548 24 16.4151 24 11.4019C23.9848 6.59566 20.1879 3 15.3012 3Z" fill="#335573"/>
</svg>
