<svg width="30" height="30" viewBox="0 0 30 30" fill="none" xmlns="http://www.w3.org/2000/svg">
<path d="M27 7.36769C26.1075 7.76923 25.1565 8.03538 24.165 8.16462C25.185 7.54 25.9635 6.55846 26.3295 5.37538C25.3785 5.95692 24.3285 6.36769 23.2095 6.59692C22.3065 5.61077 21.0195 5 19.6155 5C16.8915 5 14.6985 7.26769 14.6985 10.0477C14.6985 10.4477 14.7315 10.8323 14.8125 11.1985C10.722 10.9938 7.1025 8.98308 4.671 5.92C4.2465 6.67538 3.9975 7.54 3.9975 8.47077C3.9975 10.2185 4.875 11.7677 6.183 12.6646C5.3925 12.6492 4.617 12.4138 3.96 12.0431C3.96 12.0585 3.96 12.0785 3.96 12.0985C3.96 14.5508 5.6655 16.5877 7.902 17.0569C7.5015 17.1692 7.065 17.2231 6.612 17.2231C6.297 17.2231 5.979 17.2046 5.6805 17.1369C6.318 19.1354 8.127 20.6046 10.278 20.6523C8.604 21.9954 6.4785 22.8046 4.1775 22.8046C3.774 22.8046 3.387 22.7862 3 22.7354C5.1795 24.1769 7.7625 25 10.548 25C19.602 25 24.552 17.3077 24.552 10.64C24.552 10.4169 24.5445 10.2015 24.534 9.98769C25.5105 9.27692 26.331 8.38923 27 7.36769Z" fill="#335573"/>
</svg>
