<svg width="30" height="30" viewBox="0 0 30 30" fill="none" xmlns="http://www.w3.org/2000/svg">
<path d="M26.5055 9.50362C26.229 8.52463 25.4183 7.7529 24.3903 7.48929C22.5122 7 14.9997 7 14.9997 7C14.9997 7 7.48756 7 5.60948 7.47074C4.60122 7.73407 3.7708 8.52477 3.49424 9.50362C3 11.2917 3 15 3 15C3 15 3 18.727 3.49424 20.4964C3.7711 21.4752 4.58145 22.247 5.60962 22.5106C7.50733 23 15 23 15 23C15 23 22.5122 23 24.3903 22.5293C25.4185 22.2658 26.229 21.4941 26.5058 20.5152C26.9999 18.727 26.9999 15.0188 26.9999 15.0188C26.9999 15.0188 27.0197 11.2917 26.5055 9.50362ZM12.6079 18.4258V11.5742L18.8549 15L12.6079 18.4258Z" fill="#335573"/>
</svg>
